REM DIRINDEX 1\2,1\3,1\4
REM DIRNAME folder01,folder02,folder03,folder04
TITLE ""
FILE "093 093_TOEFL_3900.mp3" MP3
  TRACK 01 AUDIO
    TITLE "2:cjc151_4046"
    INDEX 01 00:00:00
  TRACK 02 AUDIO
    TITLE "0:"
    INDEX 01 00:01:19
  TRACK 03 AUDIO
    TITLE "3:cjc151_4047"
    INDEX 01 00:02:71
  TRACK 04 AUDIO
    TITLE "0:"
    INDEX 01 00:06:14
  TRACK 05 AUDIO
    TITLE "2:cjc151_4048"
    INDEX 01 00:07:64
  TRACK 06 AUDIO
    TITLE "0:"
    INDEX 01 00:09:06
  TRACK 07 AUDIO
    TITLE "3:cjc151_4049"
    INDEX 01 00:10:61
  TRACK 08 AUDIO
    TITLE "0:"
    INDEX 01 00:14:62
  TRACK 09 AUDIO
    TITLE "2:cjc151_4050"
    INDEX 01 00:16:42
  TRACK 10 AUDIO
    TITLE "0:"
    INDEX 01 00:17:47
  TRACK 11 AUDIO
    TITLE "3:cjc151_4051"
    INDEX 01 00:19:26
  TRACK 12 AUDIO
    TITLE "0:"
    INDEX 01 00:23:22
  TRACK 13 AUDIO
    TITLE "2:cjc151_4052"
    INDEX 01 00:25:01
  TRACK 14 AUDIO
    TITLE "0:"
    INDEX 01 00:26:05
  TRACK 15 AUDIO
    TITLE "3:cjc151_4053"
    INDEX 01 00:27:67
  TRACK 16 AUDIO
    TITLE "0:"
    INDEX 01 00:30:50
  TRACK 17 AUDIO
    TITLE "2:cjc151_4054"
    INDEX 01 00:32:29
  TRACK 18 AUDIO
    TITLE "0:"
    INDEX 01 00:33:34
  TRACK 19 AUDIO
    TITLE "3:cjc151_4055"
    INDEX 01 00:35:15
  TRACK 20 AUDIO
    TITLE "0:"
    INDEX 01 00:38:61
  TRACK 21 AUDIO
    TITLE "2:cjc151_4056"
    INDEX 01 00:40:42
  TRACK 22 AUDIO
    TITLE "0:"
    INDEX 01 00:41:42
  TRACK 23 AUDIO
    TITLE "3:cjc151_4057"
    INDEX 01 00:43:29
  TRACK 24 AUDIO
    TITLE "0:"
    INDEX 01 00:47:38
  TRACK 25 AUDIO
    TITLE "2:cjc151_4058"
    INDEX 01 00:49:16
  TRACK 26 AUDIO
    TITLE "0:"
    INDEX 01 00:50:15
  TRACK 27 AUDIO
    TITLE "3:cjc151_4059"
    INDEX 01 00:52:04
  TRACK 28 AUDIO
    TITLE "0:"
    INDEX 01 00:56:02
  TRACK 29 AUDIO
    TITLE "2:cjc151_4060"
    INDEX 01 00:57:56
  TRACK 30 AUDIO
    TITLE "0:"
    INDEX 01 00:58:52
  TRACK 31 AUDIO
    TITLE "3:cjc151_4061"
    INDEX 01 01:00:27
  TRACK 32 AUDIO
    TITLE "0:"
    INDEX 01 01:03:12
  TRACK 33 AUDIO
    TITLE "2:cjc151_4062"
    INDEX 01 01:04:66
  TRACK 34 AUDIO
    TITLE "0:"
    INDEX 01 01:06:06
  TRACK 35 AUDIO
    TITLE "3:cjc151_4063"
    INDEX 01 01:07:63
  TRACK 36 AUDIO
    TITLE "0:"
    INDEX 01 01:11:23
  TRACK 37 AUDIO
    TITLE "2:cjc151_4064"
    INDEX 01 01:13:02
  TRACK 38 AUDIO
    TITLE "0:"
    INDEX 01 01:14:17
  TRACK 39 AUDIO
    TITLE "3:cjc151_4065"
    INDEX 01 01:15:66
  TRACK 40 AUDIO
    TITLE "0:"
    INDEX 01 01:19:48
  TRACK 41 AUDIO
    TITLE "2:cjc151_4066"
    INDEX 01 01:21:27
  TRACK 42 AUDIO
    TITLE "0:"
    INDEX 01 01:22:27
  TRACK 43 AUDIO
    TITLE "3:cjc151_4067"
    INDEX 01 01:24:06
  TRACK 44 AUDIO
    TITLE "0:"
    INDEX 01 01:27:34
  TRACK 45 AUDIO
    TITLE "2:cjc151_4068"
    INDEX 01 01:29:11
  TRACK 46 AUDIO
    TITLE "0:"
    INDEX 01 01:30:17
  TRACK 47 AUDIO
    TITLE "3:cjc151_4069"
    INDEX 01 01:31:69
  TRACK 48 AUDIO
    TITLE "0:"
    INDEX 01 01:35:71
  TRACK 49 AUDIO
    TITLE "2:cjc151_4070"
    INDEX 01 01:37:50
  TRACK 50 AUDIO
    TITLE "0:"
    INDEX 01 01:38:59
  TRACK 51 AUDIO
    TITLE "3:cjc151_4071"
    INDEX 01 01:40:38
  TRACK 52 AUDIO
    TITLE "0:"
    INDEX 01 01:44:34
  TRACK 53 AUDIO
    TITLE "2:cjc151_4072"
    INDEX 01 01:46:12
  TRACK 54 AUDIO
    TITLE "0:"
    INDEX 01 01:47:09
  TRACK 55 AUDIO
    TITLE "3:cjc151_4073"
    INDEX 01 01:48:63
  TRACK 56 AUDIO
    TITLE "0:"
    INDEX 01 01:53:10
  TRACK 57 AUDIO
    TITLE "2:cjc151_4074"
    INDEX 01 01:54:64
  TRACK 58 AUDIO
    TITLE "0:"
    INDEX 01 01:56:02
  TRACK 59 AUDIO
    TITLE "3:cjc151_4075"
    INDEX 01 01:57:57
  TRACK 60 AUDIO
    TITLE "0:"
    INDEX 01 02:01:05
  TRACK 61 AUDIO
    TITLE "2:cjc151_4076"
    INDEX 01 02:02:58
  TRACK 62 AUDIO
    TITLE "0:"
    INDEX 01 02:03:57
  TRACK 63 AUDIO
    TITLE "3:cjc151_4077"
    INDEX 01 02:05:36
  TRACK 64 AUDIO
    TITLE "0:"
    INDEX 01 02:09:46
  TRACK 65 AUDIO
    TITLE "2:cjc151_4078"
    INDEX 01 02:11:23
  TRACK 66 AUDIO
    TITLE "0:"
    INDEX 01 02:12:48
  TRACK 67 AUDIO
    TITLE "3:cjc151_4079"
    INDEX 01 02:14:20
  TRACK 68 AUDIO
    TITLE "0:"
    INDEX 01 02:18:41
  TRACK 69 AUDIO
    TITLE "2:cjc151_4080"
    INDEX 01 02:20:20
  TRACK 70 AUDIO
    TITLE "0:"
    INDEX 01 02:21:35
  TRACK 71 AUDIO
    TITLE "3:cjc151_4081"
    INDEX 01 02:23:15
  TRACK 72 AUDIO
    TITLE "0:"
    INDEX 01 02:27:14
  TRACK 73 AUDIO
    TITLE "2:cjc151_4082"
    INDEX 01 02:28:67
  TRACK 74 AUDIO
    TITLE "0:"
    INDEX 01 02:29:72
  TRACK 75 AUDIO
    TITLE "3:cjc151_4083"
    INDEX 01 02:31:51
  TRACK 76 AUDIO
    TITLE "0:"
    INDEX 01 02:36:27
  TRACK 77 AUDIO
    TITLE "2:cjc151_4084"
    INDEX 01 02:38:06
  TRACK 78 AUDIO
    TITLE "0:"
    INDEX 01 02:39:04
  TRACK 79 AUDIO
    TITLE "3:cjc151_4085"
    INDEX 01 02:40:58
  TRACK 80 AUDIO
    TITLE "0:"
    INDEX 01 02:45:18
  TRACK 81 AUDIO
    TITLE "2:cjc151_4086"
    INDEX 01 02:47:02
  TRACK 82 AUDIO
    TITLE "0:"
    INDEX 01 02:48:03
  TRACK 83 AUDIO
    TITLE "3:cjc151_4087"
    INDEX 01 02:49:59
  TRACK 84 AUDIO
    TITLE "0:"
    INDEX 01 02:53:24
  TRACK 85 AUDIO
    TITLE "2:cjc151_4088"
    INDEX 01 02:55:03
  TRACK 86 AUDIO
    TITLE "0:"
    INDEX 01 02:55:72
  TRACK 87 AUDIO
    TITLE "3:cjc151_4089"
    INDEX 01 02:57:41
  TRACK 88 AUDIO
    TITLE "0:"
    INDEX 01 03:00:47
